:SAMPLES-PER-SECOND 30
:FULLY-SPECIFIED
:DEGREES
519
root  2.278 38.1818 13.0221 -178.656 13.2996 173.339
RightUpLeg  -15.0512 -10.8463 -21.5089
RightLeg  23.4159 -14.2853 -6.88554
RightFoot  -0.247092 -2.16117 21.9619
RightToes  -1.74624e-010 0 -3.6325e-017
Spine  8.33168 -2.00399 1.09057
Spine1  22.2377 -2.59073 1.24929
HEad  -13.983 18.8697 -16.0278
LeftShoulder1  0.889584 -0.841733 -13.4804
LeftArm  12.6822 0.984588 -62.3405
LeftForeArm  80.3805 -79.4791 -89.7545
LeftHand  -1.96202 -3.1695 26.4572
RightShoulder  0.578901 -0.202673 10.3419
RightArm  -0.742028 -5.50785 56.7394
RightForeArm  146.008 65.8923 155.422
RightHand  -1.10516 4.27263 -13.4952
LeftUpLeg  -11.0263 -2.09895 6.76969
LeftLeg  22.8898 -2.55633 -0.850066
LeftFoot  -12.1186 -0.0372575 -16.1986
LeftToes  3.7286e-011 -1.5702e-010 -9.70233e-012
520
root  1.47424 38.2122 12.8873 -178.691 14.2853 173.681
RightUpLeg  -14.0905 -9.33624 -22.3011
RightLeg  20.4057 -15.0786 -6.33034
RightFoot  2.23622 -2.73023 22.78
RightToes  -1.74624e-010 0 -3.6325e-017
Spine  7.79114 -1.64791 0.497223
Spine1  22.5743 -2.17439 0.94067
HEad  -13.6626 18.6197 -15.0835
LeftShoulder1  0.888213 -0.823286 -13.5419
LeftArm  13.3977 1.10414 -62.8536
LeftForeArm  81.2295 -79.4975 -90.1769
LeftHand  -1.98544 -3.30306 26.3663
RightShoulder  0.593028 -0.179786 10.6832
RightArm  -0.411542 -6.34088 56.9303
RightForeArm  146.144 65.8626 155.469
RightHand  -1.12714 4.35349 -13.6469
LeftUpLeg  -10.8421 -2.48172 5.47733
LeftLeg  23.1975 -0.422041 0.135336
LeftFoot  -13.5028 -0.189991 -14.2993
LeftToes  3.7286e-011 -1.5702e-010 -9.70233e-012
521
root  0.641157 38.2562 12.7676 -178.867 15.802 173.888
RightUpLeg  -13.3425 -8.25543 -23.026
RightLeg  17.1574 -15.5645 -5.7751
RightFoot  4.93817 -3.16977 22.1859
RightToes  -1.74624e-010 0 -3.6325e-017
Spine  7.32067 -1.17674 -0.262711
Spine1  23.0219 -1.57375 0.433792
HEad  -13.5058 18.4422 -14.2178
LeftShoulder1  0.875475 -0.713462 -13.7971
LeftArm  14.5186 0.888886 -63.003
LeftForeArm  76.3411 -79.4488 -85.6049
LeftHand  -1.95158 -3.25999 26.0594
RightShoulder  0.604597 -0.176699 11.0546
RightArm  0.367655 -7.14351 57.286
RightForeArm  146.423 65.8117 155.555
RightHand  -1.14104 4.40538 -13.7406
LeftUpLeg  -10.2984 -2.05278 4.13158
LeftLeg  23.0753 0.987576 0.80067
LeftFoot  -14.8331 -0.304777 -12.8318
LeftToes  3.7286e-011 -1.5702e-010 -9.70233e-012
522
root  -0.164463 38.2974 12.6978 -179.135 17.4189 174.024
RightUpLeg  -13.235 -8.76625 -23.2908
RightLeg  15.0952 -15.9606 -5.73044
RightFoot  6.44085 -2.96332 19.0437
RightToes  -1.74624e-010 0 -3.6325e-017
Spine  7.14447 -0.667226 -1.2356
Spine1  23.456 -1.07695 0.336506
HEad  -13.7378 18.4168 -13.5781
LeftShoulder1  0.891243 -0.71226 -14.211
LeftArm  15.716 0.490938 -62.6686
LeftForeArm  68.1154 -79.2176 -78.4306
LeftHand  -1.93442 -3.04866 26.4576
RightShoulder  0.610272 -0.186381 11.3058
RightArm  1.46334 -7.85372 58.1092
RightForeArm  147.109 65.8831 155.555
RightHand  -1.12222 4.44257 -13.4715
LeftUpLeg  -10.0101 -0.423472 3.03107
LeftLeg  23.3003 0.880748 0.75573
LeftFoot  -15.6682 -0.367449 -12.1556
LeftToes  3.7286e-011 -1.5702e-010 -9.70233e-012
523
root  -0.877122 38.333 12.6814 -179.39 18.693 174.023
RightUpLeg  -14.0971 -9.52783 -23.3408
RightLeg  16.2312 -16.6841 -6.0234
RightFoot  5.50472 -2.27612 15.5107
RightToes  -1.74624e-010 0 -3.6325e-017
Spine  7.29484 -0.292478 -2.37894
Spine1  23.7652 -0.817942 0.48166
HEad  -14.4212 18.5257 -13.1567
LeftShoulder1  0.954218 -0.971408 -14.4177
LeftArm  16.6586 0.39409 -61.8435
LeftForeArm  61.8154 -78.924 -73.3411
LeftHand  -1.98479 -2.79118 27.9257
RightShoulder  0.613786 -0.195231 11.4803
RightArm  2.73349 -8.56206 59.5939
RightForeArm  147.782 66.1707 155.317
RightHand  -1.08747 4.47572 -13.0248
LeftUpLeg  -10.1676 1.84959 2.08202
LeftLeg  23.889 -0.0316009 0.328119
LeftFoot  -15.8545 -0.366937 -11.6797
LeftToes  3.7286e-011 -1.5702e-010 -9.70233e-012
524
root  -1.46311 38.385 12.6962 -179.568 19.4913 174.012
RightUpLeg  -15.5975 -10.5034 -22.6694
RightLeg  20.565 -15.3101 -6.38557
RightFoot  2.39908 -1.74864 14.6276
RightToes  -1.74624e-010 0 -3.6325e-017
Spine  7.60234 -0.131773 -3.3792
Spine1  23.901 -0.729825 0.481264
HEad  -15.165 18.6896 -12.9115
LeftShoulder1  1.0161 -1.28018 -14.3274
LeftArm  17.3072 0.887753 -60.7421
LeftForeArm  60.2647 -78.8409 -72.5606
LeftHand  -2.05161 -2.5979 29.4883
RightShoulder  0.624271 -0.180285 11.7389
RightArm  4.25085 -9.39261 61.2976
RightForeArm  147.965 66.4894 154.985
RightHand  -1.06612 4.46239 -12.7933
LeftUpLeg  -10.3733 3.4812 1.24077
LeftLeg  24.1813 -0.52382 0.0883358
LeftFoot  -15.6819 -0.32292 -10.9654
LeftToes  3.7286e-011 -1.5702e-010 -9.70233e-012
525
root  -1.91699 38.4816 12.7118 -179.625 20.0192 174.139
RightUpLeg  -16.9197 -11.8398 -20.8499
RightLeg  25.734 -11.2812 -6.07383
RightFoot  -1.34499 -1.42856 16.15
RightToes  -1.74624e-010 0 -3.6325e-017
Spine  7.80403 -0.0492339 -4.22566
Spine1  23.8743 -0.719858 0.440025
HEad  -15.4535 18.8541 -12.8401
LeftShoulder1  1.02221 -1.318 -14.2844
LeftArm  17.7567 1.89485 -59.731
LeftForeArm  62.5418 -78.9678 -74.9723
LeftHand  -2.06921 -2.50852 30.0468
RightShoulder  0.648331 -0.101246 12.0392
RightArm  6.04436 -10.382 62.5091
RightForeArm  147.881 66.6225 154.825
RightHand  -1.05677 4.41776 -12.7393
LeftUpLeg  -10.2701 3.80403 0.590928
LeftLeg  23.7192 -0.0873635 0.30176
LeftFoot  -15.3133 -0.26238 -10.1833
LeftToes  3.7286e-011 -1.5702e-010 -9.70233e-012
526
root  -2.25903 38.6319 12.7034 -179.464 20.5408 174.423
RightUpLeg  -17.6603 -12.6294 -18.3695
RightLeg  29.9112 -7.34714 -4.78389
RightFoot  -4.45509 -1.15316 18.5274
RightToes  -1.74624e-010 0 -3.6325e-017
Spine  7.71236 0.107043 -5.02226
Spine1  23.7313 -0.738675 0.687424
HEad  -15.1719 19.01 -12.7868
LeftShoulder1  0.979302 -1.08232 -14.4519
LeftArm  17.9591 3.28742 -59.0466
LeftForeArm  66.6887 -79.149 -78.9178
LeftHand  -2.05031 -2.5267 29.721
RightShoulder  0.675305 0.0113937 12.2115
RightArm  7.90658 -11.4214 63.0094
RightForeArm  148.003 66.5824 154.884
RightHand  -1.03369 4.41503 -12.4723
LeftUpLeg  -9.95698 3.30904 0.186199
LeftLeg  22.6203 1.0348 0.818153
LeftFoot  -14.6242 -0.186369 -9.53457
LeftToes  3.7286e-011 -1.5702e-010 -9.70233e-012
527
root  -2.5121 38.803 12.6725 -179.053 21.0339 174.74
RightUpLeg  -17.8727 -13.459 -15.6209
RightLeg  32.6659 -3.88819 -2.92675
RightFoot  -6.43062 -1.00085 22.032
RightToes  -1.74624e-010 0 -3.6325e-017
Spine  7.28637 0.263344 -5.74636
Spine1  23.5519 -0.76351 1.04667
HEad  -14.6564 19.1196 -12.4577
LeftShoulder1  0.92801 -0.820001 -14.5677
LeftArm  17.8348 4.93677 -58.6362
LeftForeArm  71.6589 -79.2928 -83.7238
LeftHand  -2.04769 -2.62593 29.3359
RightShoulder  0.681027 0.0239902 12.316
RightArm  9.61152 -12.2852 63.0596
RightForeArm  148.212 66.4475 155.06
RightHand  -0.985702 4.42841 -11.8944
LeftUpLeg  -9.71486 2.86108 -0.0430518
LeftLeg  21.2632 2.18024 1.2659
LeftFoot  -13.6836 -0.101311 -8.94357
LeftToes  3.7286e-011 -1.5702e-010 -9.70233e-012
528
root  -2.70369 38.9526 12.6454 -178.525 21.233 174.972
RightUpLeg  -17.4257 -14.46 -12.9842
RightLeg  34.0338 -0.961335 -0.958051
RightFoot  -7.1473 -0.999484 25.4813
RightToes  -1.74624e-010 0 -3.6325e-017
Spine  6.64584 0.252033 -6.28038
Spine1  23.4358 -0.828397 1.15677
HEad  -14.3033 19.1126 -11.834
LeftShoulder1  0.891907 -0.664722 -14.4946
LeftArm  17.4863 6.43317 -58.3103
LeftForeArm  76.1575 -79.3559 -88.1472
LeftHand  -2.06354 -2.72417 29.2118
RightShoulder  0.659597 -0.11528 12.4999
RightArm  11.0171 -12.784 62.9285
RightForeArm  148.073 66.2049 155.313
RightHand  -0.934537 4.36409 -11.3666
LeftUpLeg  -9.63291 2.65093 -0.195709
LeftLeg  19.9253 2.8638 1.39853
LeftFoot  -12.7614 -0.0269643 -8.3268
LeftToes  3.7286e-011 -1.5702e-010 -9.70233e-012
529
root  -2.87488 39.1037 12.6325 -178.001 21.035 175.264
RightUpLeg  -16.1805 -15.413 -10.4777
RightLeg  33.5459 0.048041 -0.213155
RightFoot  -7.04193 -0.994174 24.8629
RightToes  -1.74624e-010 0 -3.6325e-017
Spine  6.03258 0.0986043 -6.32364
Spine1  23.4098 -0.979069 1.28205
HEad  -14.209 18.9666 -11.2677
LeftShoulder1  0.876437 -0.598219 -14.4611
LeftArm  17.0893 7.29846 -58.0218
LeftForeArm  78.0459 -79.3633 -89.9958
LeftHand  -2.06125 -2.72061 29.1932
RightShoulder  0.636747 -0.249732 12.6167
RightArm  11.9147 -12.9144 62.7708
RightForeArm  147.593 65.9047 155.586
RightHand  -0.910175 4.24086 -11.2137
LeftUpLeg  -9.50649 2.33054 -0.223584
LeftLeg  18.4725 3.17508 1.33841
LeftFoot  -11.7869 0.0403065 -7.73047
LeftToes  3.7286e-011 -1.5702e-010 -9.70233e-012
530
root  -3.03069 39.2786 12.6246 -177.562 20.735 175.71
RightUpLeg  -14.3825 -15.6276 -8.20829
RightLeg  30.9587 -2.2455 -1.66467
RightFoot  -7.28678 -0.7484 19.3781
RightToes  -1.74624e-010 0 -3.6325e-017
Spine  5.59841 0.0133401 -5.85017
Spine1  23.417 -1.10544 1.74663
HEad  -14.1486 18.7191 -10.9658
LeftShoulder1  0.88461 -0.616975 -14.5716
LeftArm  16.7196 7.46608 -57.9124
LeftForeArm  76.9166 -79.3558 -88.9792
LeftHand  -2.03912 -2.59725 29.319
RightShoulder  0.636547 -0.228641 12.4705
RightArm  12.1707 -12.7383 62.6532
RightForeArm  147.171 65.735 155.721
RightHand  -0.919559 4.19093 -11.3809
LeftUpLeg  -9.18368 1.74942 -0.0899082
LeftLeg  16.8759 3.56851 1.34768
LeftFoot  -10.635 0.10827 -7.22391
LeftToes  3.7286e-011 -1.5702e-010 -9.70233e-012
531
root  -3.14608 39.4036 12.6303 -177.384 20.7941 175.98
RightUpLeg  -12.639 -14.027 -6.73696
RightLeg  27.5764 -7.14064 -4.25146
RightFoot  -8.35922 -0.411311 13.602
RightToes  -1.74624e-010 0 -3.6325e-017
Spine  5.27229 0.117109 -5.31391
Spine1  23.5297 -0.951341 2.00454
HEad  -13.8919 18.4277 -10.7571
LeftShoulder1  0.906928 -0.713739 -14.6132
LeftArm  16.3761 7.18332 -58.0488
LeftForeArm  75.242 -79.3374 -87.5372
LeftHand  -2.02574 -2.45812 29.6255
RightShoulder  0.647323 -0.140944 12.258
RightArm  12.027 -12.1538 62.4935
RightForeArm  147.021 65.8084 155.625
RightHand  -0.946728 4.24634 -11.6433
LeftUpLeg  -8.87261 1.14695 -0.0783097
LeftLeg  15.8341 4.31166 1.54973
LeftFoot  -9.75118 0.153936 -6.86799
LeftToes  3.7286e-011 -1.5702e-010 -9.70233e-012
532
root  -3.24332 39.4548 12.6472 -177.506 21.368 176.013
RightUpLeg  -11.2634 -10.6567 -6.24132
RightLeg  24.8766 -11.676 -6.08413
RightFoot  -9.15688 -0.281889 11.5843
RightToes  -1.74624e-010 0 -3.6325e-017
Spine  4.90965 0.291828 -4.599
Spine1  23.9374 -0.428953 1.44856
HEad  -13.4904 18.1835 -10.5526
LeftShoulder1  0.92626 -0.815589 -14.5483
LeftArm  16.0135 6.64302 -58.2789
LeftForeArm  75.2672 -79.3427 -87.4199
LeftHand  -2.03337 -2.44966 29.7623
RightShoulder  0.641913 -0.166377 12.2426
RightArm  11.8716 -11.0519 62.2114
RightForeArm  147.031 66.0265 155.391
RightHand  -0.971393 4.30288 -11.8716
LeftUpLeg  -8.60636 0.678755 -0.2663
LeftLeg  15.5347 5.37567 1.90329
LeftFoot  -9.39634 0.170046 -6.69475
LeftToes  3.7286e-011 -1.5702e-010 -9.70233e-012
